# xmcd
#
# Track frame offsets: 
#        150
#        19315
#        40522
#        63565
#        82985
#        104835
#        123145
#        142255
#        161147
#        189682
#        210027
#        236057
#        251555
#        266195
#
# Disc length: 3792 seconds
#
# Revision: 1
# Processed by: cddbd v1.5.2PL0 Copyright (c) Steve Scherf et al.
# Submitted via: ExactAudioCopy v0.95b3
#
DISCID=ca0ece0e
DTITLE=Little Milton - Little Milton's Greatest Hits
DYEAR=1995
DGENRE=
TTITLE0=The Blues Is Alright
TTITLE1=Room 244
TTITLE2=Annie Mae's Cafe
TTITLE3=Nothin' To Write Home About
TTITLE4=My Dog And Me
TTITLE5=Strugglin' Lady
TTITLE6=I Was Trying Not To Break Down
TTITLE7=Little Bluebird
TTITLE8=Walkin' The Back Streets And Cryin'
TTITLE9=Catch You On Your Way Down
TTITLE10=A Possum In My Tree
TTITLE11=Murder On Your Hands
TTITLE12=Comeback Kind Of Love
TTITLE13=Going, Going, Gone
EXTD=
EXTT0=
EXTT1=
EXTT2=
EXTT3=
EXTT4=
EXTT5=
EXTT6=
EXTT7=
EXTT8=
EXTT9=
EXTT10=
EXTT11=
EXTT12=
EXTT13=
PLAYORDER=
